<svg xmlns="http://www.w3.org/2000/svg" xmlns:xlink="http://www.w3.org/1999/xlink" version="1.1" x="0px" y="0px" viewBox="0 0 64 80" style="enable-background:new 0 0 64 64;" xml:space="preserve" fill="#fff">
    <g>
        <path d="M43,16c3.309,0,6-2.691,6-6s-2.691-6-6-6s-6,2.691-6,6S39.691,16,43,16z M43,6c2.206,0,4,1.794,4,4s-1.794,4-4,4   c-0.117,0-0.226-0.025-0.34-0.034C43.476,13.233,44,12.181,44,11h-2c0,0.986-0.719,1.803-1.66,1.966C39.524,12.233,39,11.181,39,10   C39,7.794,40.794,6,43,6z"/>
        <path d="M12,28c3.309,0,6-2.691,6-6s-2.691-6-6-6s-6,2.691-6,6S8.691,28,12,28z M12,18c2.206,0,4,1.794,4,4   c0,1.181-0.524,2.233-1.34,2.966C13.719,24.803,13,23.986,13,23h-2c0,1.181,0.524,2.233,1.34,2.966C12.226,25.975,12.117,26,12,26   c-2.206,0-4-1.794-4-4S9.794,18,12,18z"/>
        <path d="M60.316,5.052l-6-2C54.01,2.948,53.677,3,53.415,3.188C53.154,3.377,53,3.679,53,4v8v5H39   c-0.234,0-0.461,0.082-0.641,0.231l-6,5c-0.105,0.089-0.192,0.198-0.254,0.321l-2.836,5.673l-6.314,2.705l-5.639-1.879   C17.214,29.018,17.107,29,17,29H9c-2.757,0-5,2.243-5,5v11c0,0.553,0.447,1,1,1h3v12H4v2h5h5h4c0.553,0,1-0.447,1-1v-5h2h5h7   c0.553,0,1-0.447,1-1v-5h6h5c0.553,0,1-0.447,1-1v-5h6h5h3v-2h-2v-8c0-2.757-2.243-5-5-5h-4v-4h5c2.757,0,5-2.243,5-5v-6   c0-0.553-0.447-1-1-1h-3V8.721l5.316-1.772C60.725,6.812,61,6.431,61,6S60.725,5.188,60.316,5.052z M44.523,19L44,20.308L43.477,19   H44.523z M18,52c-0.553,0-1,0.447-1,1v5h-2V46h5v6H18z M22,52v-7c0-0.553-0.447-1-1-1h-7c-0.553,0-1,0.447-1,1v13h-3V35H8v9H6V34   c0-1.654,1.346-3,3-3h3v7h2v-7h2.838l5.846,1.948c0.232,0.079,0.486,0.066,0.71-0.029l6.235-2.672l0.607,0.91l0.303,0.455   l-6.708,3.353l-6.69-0.956c-0.287-0.042-0.578,0.045-0.797,0.234C16.126,34.435,16,34.71,16,35v5c0,0.553,0.447,1,1,1h5   c1.654,0,3,1.346,3,3v8H22z M33,46c-0.553,0-1,0.447-1,1v5h-5v-8c0-2.757-2.243-5-5-5h-4v-2.847l5.858,0.837   c0.202,0.029,0.406-0.005,0.589-0.096l8-4c0.146-0.073,0.261-0.184,0.354-0.313c0.008-0.011,0.023-0.015,0.031-0.026l3.905-5.857   L39,25v21H33z M51,40h-5v-6h5V40z M57,18c0,1.654-1.346,3-3,3h-6c-0.553,0-1,0.447-1,1v6c0,0.553,0.447,1,1,1h5   c1.654,0,3,1.346,3,3v8h-3v-7c0-0.553-0.447-1-1-1h-7c-0.553,0-1,0.447-1,1v8v5h-3V23c0-0.379-0.214-0.725-0.553-0.895   c-0.338-0.168-0.745-0.133-1.047,0.095l-4,3c-0.091,0.067-0.17,0.15-0.232,0.245L32,30.197l-0.846-1.27l2.646-5.293L39.362,19   h1.961l1.748,4.371C43.224,23.751,43.591,24,44,24s0.776-0.249,0.929-0.629L46.677,19H54c0.553,0,1-0.447,1-1v-5h2V18z M55,6.612   V5.388L56.838,6L55,6.612z"/>
        <rect x="28" y="8" width="2" height="2"/>
        <rect x="24" y="8" width="2" height="2"/>
        <rect x="20" y="8" width="2" height="2"/>
    </g>
</svg>
