<svg xmlns="http://www.w3.org/2000/svg" xmlns:xlink="http://www.w3.org/1999/xlink" version="1.1" x="0px" y="0px" viewBox="0 0 100 125" enable-background="new 0 0 100 100" xml:space="preserve" fill="#fff">
    <path d="M64.6,74.188H35.181c-0.92,0-1.703-0.67-1.845-1.578l-1.891-12.076c-0.015-0.096-0.022-0.191-0.022-0.289  c0-2.492-1.606-4.351-1.623-4.369c-5.221-5.106-8.146-12.061-8.146-19.49c0-15.109,12.292-27.401,27.401-27.401  c0.345,0,0.668,0.094,0.946,0.257c0.277-0.163,0.601-0.257,0.945-0.257c15.109,0,27.401,12.292,27.401,27.401  c0,7.428-2.924,14.383-8.233,19.582c-0.074,0.072-0.154,0.139-0.238,0.199c-0.032,0.025-1.516,1.193-1.516,4.078  c0,0.098-0.008,0.193-0.023,0.289L66.445,72.61C66.303,73.519,65.52,74.188,64.6,74.188z M36.78,70.452h26.222l1.621-10.357  c0.048-3.674,1.812-5.994,2.965-6.884c4.529-4.481,7.021-10.451,7.021-16.825c0-13.049-10.615-23.665-23.664-23.665  c-0.344,0-0.668-0.094-0.945-0.257c-0.277,0.164-0.601,0.257-0.946,0.257c-13.048,0-23.664,10.616-23.664,23.665  c0,6.417,2.525,12.422,7.111,16.914c0.182,0.197,2.593,2.912,2.656,6.793L36.78,70.452z"/>
    <path d="M59.965,82.948H40.481c-1.031,0-1.868-0.838-1.868-1.869s0.837-1.867,1.868-1.867h19.484c1.031,0,1.868,0.836,1.868,1.867  S60.996,82.948,59.965,82.948z"/>
    <path d="M54.326,90.585h-8.877c-1.032,0-1.868-0.838-1.868-1.869s0.836-1.867,1.868-1.867h8.877c1.032,0,1.869,0.836,1.869,1.867  S55.358,90.585,54.326,90.585z"/>
    <path d="M49.149,51.234c-0.218,0-0.439-0.04-0.656-0.12c-0.966-0.363-1.456-1.439-1.094-2.405l3.446-9.188h-6.089  c-0.613,0-1.187-0.3-1.536-0.804c-0.349-0.504-0.429-1.146-0.214-1.72l4.392-11.711c0.363-0.966,1.439-1.451,2.405-1.094  c0.966,0.363,1.456,1.439,1.094,2.406l-3.446,9.187h6.089c0.613,0,1.188,0.3,1.535,0.804c0.35,0.504,0.429,1.146,0.215,1.72  l-4.393,11.713C50.617,50.771,49.905,51.234,49.149,51.234z"/>
</svg>
